<mxfile host="app.diagrams.net" agent="Mozilla/5.0 (Windows NT 10.0; Win64; x64) AppleWebKit/537.36 (KHTML, like Gecko) Chrome/127.0.0.0 Safari/537.36" version="24.7.8">
  <diagram name="‫עמוד-1‬" id="4f-_RZRsn0nmVXIMA4Ax">
    <mxGraphModel dx="880" dy="468" grid="1" gridSize="10" guides="1" tooltips="1" connect="1" arrows="1" fold="1" page="1" pageScale="1" pageWidth="827" pageHeight="1169" math="0" shadow="0">
      <root>
        <mxCell id="0" />
        <mxCell id="1" parent="0" />
        <mxCell id="AlS45GXR5DpEZkEZILRY-1" value="start" style="rounded=1;whiteSpace=wrap;html=1;" parent="1" vertex="1">
          <mxGeometry x="240" y="120" width="120" height="60" as="geometry" />
        </mxCell>
        <mxCell id="4EsxmWnpHj7sSTrwAsJG-10" value="" style="edgeStyle=orthogonalEdgeStyle;rounded=0;orthogonalLoop=1;jettySize=auto;html=1;exitX=0.5;exitY=1;exitDx=0;exitDy=0;" edge="1" parent="1" source="AlS45GXR5DpEZkEZILRY-1" target="4EsxmWnpHj7sSTrwAsJG-9">
          <mxGeometry relative="1" as="geometry">
            <mxPoint x="299.5" y="440" as="targetPoint" />
            <mxPoint x="300" y="180" as="sourcePoint" />
          </mxGeometry>
        </mxCell>
        <mxCell id="4EsxmWnpHj7sSTrwAsJG-13" style="edgeStyle=orthogonalEdgeStyle;rounded=0;orthogonalLoop=1;jettySize=auto;html=1;entryX=0.5;entryY=0;entryDx=0;entryDy=0;" edge="1" parent="1" source="4EsxmWnpHj7sSTrwAsJG-9" target="4EsxmWnpHj7sSTrwAsJG-11">
          <mxGeometry relative="1" as="geometry" />
        </mxCell>
        <mxCell id="4EsxmWnpHj7sSTrwAsJG-9" value="x (int) = 55" style="rounded=0;whiteSpace=wrap;html=1;" vertex="1" parent="1">
          <mxGeometry x="240" y="240" width="120" height="60" as="geometry" />
        </mxCell>
        <mxCell id="4EsxmWnpHj7sSTrwAsJG-16" style="edgeStyle=orthogonalEdgeStyle;rounded=0;orthogonalLoop=1;jettySize=auto;html=1;" edge="1" parent="1" source="4EsxmWnpHj7sSTrwAsJG-11" target="4EsxmWnpHj7sSTrwAsJG-15">
          <mxGeometry relative="1" as="geometry" />
        </mxCell>
        <mxCell id="4EsxmWnpHj7sSTrwAsJG-11" value="x" style="shape=document;whiteSpace=wrap;html=1;boundedLbl=1;" vertex="1" parent="1">
          <mxGeometry x="240" y="360" width="120" height="80" as="geometry" />
        </mxCell>
        <mxCell id="4EsxmWnpHj7sSTrwAsJG-15" value="stop" style="rounded=1;whiteSpace=wrap;html=1;" vertex="1" parent="1">
          <mxGeometry x="240" y="480" width="120" height="60" as="geometry" />
        </mxCell>
      </root>
    </mxGraphModel>
  </diagram>
</mxfile>
